<?xml version="1.0" encoding="UTF-8" standalone="no"?>
<svg width="233px" height="222px" viewBox="0 0 233 222" version="1.1" xmlns="http://www.w3.org/2000/svg" xmlns:xlink="http://www.w3.org/1999/xlink" xmlns:sketch="http://www.bohemiancoding.com/sketch/ns">
    <!-- Generator: Sketch 3.0.4 (8053) - http://www.bohemiancoding.com/sketch -->
    <title>Fill 1 + Fill 2 + Fill 3</title>
    <desc>Created with Sketch.</desc>
    <defs></defs>
    <g id="Page-1" stroke="none" stroke-width="1" fill="none" fill-rule="evenodd" sketch:type="MSPage">
        <g id="Fill-1-+-Fill-2-+-Fill-3" sketch:type="MSLayerGroup" transform="translate(-1.000000, 2.000000)" fill="#3E3E3E">
            <path d="M22.11025,38.805401 L212.749083,38.805401 C224.411417,38.805401 233.86125,29.8345355 233.86125,18.7992059 C233.86125,7.74523555 224.42125,-1.22096974 212.749083,-1.22096974 L22.1200833,-1.22096974 C10.4626667,-1.22096974 1.01283333,7.74523555 1.01283333,18.7852253 C1.01283333,29.8345355 10.4528333,38.805401 22.11025,38.805401" id="Fill-1" sketch:type="MSShapeGroup"></path>
            <path d="M212.758917,88.9164225 L22.1200833,88.9164225 C10.4528333,88.9164225 1.01283333,97.887288 1.01283333,108.927278 C1.01283333,119.981248 10.4528333,128.947453 22.11025,128.947453 L212.758917,128.947453 C224.416333,128.947453 233.86125,119.981248 233.86125,108.936598 C233.86125,97.887288 224.426167,88.9164225 212.758917,88.9164225" id="Fill-2" sketch:type="MSShapeGroup"></path>
            <path d="M212.758917,179.058475 L22.1200833,179.058475 C10.4528333,179.058475 1.01283333,188.02468 1.01283333,199.06933 C1.01283333,210.123301 10.4528333,219.084846 22.11025,219.084846 L212.758917,219.084846 C224.416333,219.084846 233.86125,210.123301 233.86125,199.078651 C233.86125,188.02468 224.426167,179.058475 212.758917,179.058475" id="Fill-3" sketch:type="MSShapeGroup"></path>
        </g>
    </g>
</svg>